<mxfile host="app.diagrams.net" modified="2024-01-16T23:40:42.528Z" agent="Mozilla/5.0 (Macintosh; Intel Mac OS X 10_15_7) AppleWebKit/537.36 (KHTML, like Gecko) Chrome/120.0.0.0 Safari/537.36" version="22.1.18" etag="fqaB4Q8eUdSNeNxUTa4D" type="github">
  <diagram name="Page-1" id="NgoD8dN6MapO5AJiuwCw">
    <mxGraphModel>
      <root>
        <mxCell id="0" />
        <mxCell id="1" parent="0" />
      </root>
    </mxGraphModel>
  </diagram>
</mxfile>
